<?xml version="1.0" encoding="UTF-8"?>
<svg id="Layer_1" data-name="Layer 1" xmlns="http://www.w3.org/2000/svg" width="1000" height="1000" viewBox="0 0 1000 1000">
  <defs>
    <style>
      .cls-1 {
        fill: #f70000;
        stroke-width: 10px;
      }

      .cls-1, .cls-2, .cls-3, .cls-4, .cls-5, .cls-6 {
        stroke: #000;
      }

      .cls-1, .cls-3, .cls-4, .cls-5, .cls-6 {
        stroke-miterlimit: 10;
      }

      .cls-2 {
        stroke-dasharray: 0 0 30 30;
        stroke-linejoin: round;
        stroke-width: 16px;
      }

      .cls-2, .cls-4 {
        fill: #fff629;
      }

      .cls-3 {
        fill: #f7931e;
      }

      .cls-3, .cls-4, .cls-6 {
        stroke-width: 3px;
      }

      .cls-5 {
        fill: #7cc9e8;
        stroke-width: 5px;
      }

      .cls-6 {
        fill: #fff;
      }
    </style>
  </defs>
  <path class="cls-1" d="M783.53,378.92s67.77,8.67,67.77-63.83V55.03H157.82l-7.88,260.05s-6.3,63.83,47.28,63.83,63.04,0,63.04,0"/>
  <g>
    <circle class="cls-4" cx="324.1" cy="378.92" r="63.83"/>
    <circle class="cls-6" cx="324.1" cy="378.92" r="31.92"/>
  </g>
  <line class="cls-2" x1="387.93" y1="378.92" x2="655.87" y2="378.92"/>
  <g>
    <circle class="cls-4" cx="719.7" cy="378.92" r="63.83"/>
    <circle class="cls-6" cx="719.7" cy="378.92" r="31.92"/>
  </g>
  <rect class="cls-5" x="157.32" y="108.62" width="181.75" height="115.05"/>
  <rect class="cls-5" x="435.22" y="108.62" width="115.05" height="115.05"/>
  <rect class="cls-5" x="610.95" y="108.62" width="115.05" height="115.05"/>
  <g>
    <circle class="cls-4" cx="133.02" cy="640.8" r="63.83"/>
    <circle class="cls-6" cx="133.02" cy="640.8" r="31.92"/>
  </g>
  <line class="cls-2" x1="169.66" y1="588.53" x2="288.41" y2="431.85"/>
  <circle class="cls-4" cx="898.97" cy="649.92" r="63.83"/>
  <line class="cls-2" x1="862.33" y1="597.65" x2="751.62" y2="434.21"/>
  <circle class="cls-6" cx="898.97" cy="649.92" r="31.92"/>
  <line class="cls-2" x1="299.72" y1="903.21" x2="157.32" y2="695.21"/>
  <g>
    <path d="M448.48,623.51c-6.12,2.2-18.21,5.81-32.5,5.81-16.01,0-29.2-4.08-39.56-13.97-9.1-8.79-14.76-22.92-14.76-39.4,.16-31.55,21.82-54.63,57.3-54.63,12.25,0,21.82,2.67,26.37,4.87l-3.3,11.15c-5.65-2.51-12.72-4.55-23.39-4.55-25.75,0-42.54,16.01-42.54,42.54s16.17,42.7,40.82,42.7c8.95,0,15.07-1.26,18.21-2.83v-31.55h-21.51v-10.99h34.85v50.86Z"/>
    <path d="M489.45,534.03h-32.18v-11.62h78.33v11.62h-32.34v94.19h-13.81v-94.19Z"/>
    <path d="M547.37,522.42h56.98v11.46h-43.33v35.16h40.03v11.3h-40.03v47.88h-13.66v-105.81Z"/>
    <path d="M621.94,611.58c6.12,3.77,15.07,6.91,24.49,6.91,13.97,0,22.13-7.38,22.13-18.05,0-9.89-5.65-15.54-19.94-21.04-17.27-6.12-27.94-15.07-27.94-29.98,0-16.48,13.66-28.73,34.22-28.73,10.83,0,18.68,2.51,23.39,5.18l-3.77,11.15c-3.45-1.88-10.52-5.02-20.09-5.02-14.44,0-19.94,8.63-19.94,15.86,0,9.89,6.44,14.76,21.04,20.41,17.9,6.91,27,15.54,27,31.08,0,16.33-12.09,30.45-37.05,30.45-10.2,0-21.35-2.98-27-6.75l3.45-11.46Z"/>
  </g>
  <g>
    <path d="M298.47,753.78c3.83,2.36,9.42,4.32,15.31,4.32,8.73,0,13.83-4.61,13.83-11.28,0-6.18-3.53-9.71-12.46-13.15-10.79-3.83-17.46-9.42-17.46-18.74,0-10.3,8.54-17.96,21.39-17.96,6.77,0,11.68,1.57,14.62,3.24l-2.35,6.97c-2.16-1.18-6.57-3.14-12.56-3.14-9.03,0-12.46,5.4-12.46,9.91,0,6.18,4.02,9.22,13.15,12.75,11.19,4.32,16.88,9.71,16.88,19.43,0,10.2-7.55,19.03-23.15,19.03-6.38,0-13.34-1.86-16.88-4.22l2.16-7.16Z"/>
    <path d="M382.25,733.17h-25.71v23.84h28.65v7.16h-37.19v-66.13h35.71v7.16h-27.18v20.9h25.71v7.06Z"/>
    <path d="M446.61,761.23c-3.83,1.37-11.38,3.63-20.31,3.63-10.01,0-18.25-2.55-24.72-8.73-5.69-5.5-9.22-14.33-9.22-24.63,.1-19.72,13.64-34.14,35.81-34.14,7.65,0,13.64,1.67,16.48,3.04l-2.06,6.97c-3.53-1.57-7.95-2.85-14.62-2.85-16.09,0-26.59,10.01-26.59,26.59s10.11,26.69,25.51,26.69c5.59,0,9.42-.79,11.38-1.77v-19.72h-13.44v-6.87h21.78v31.79Z"/>
    <path d="M515.39,735.14c-.49-9.22-1.08-20.31-.98-28.55h-.29c-2.26,7.75-5,15.99-8.34,25.12l-11.67,32.08h-6.48l-10.69-31.49c-3.14-9.32-5.79-17.86-7.65-25.71h-.2c-.2,8.24-.69,19.33-1.28,29.24l-1.77,28.35h-8.14l4.61-66.13h10.89l11.28,31.99c2.75,8.14,5,15.4,6.67,22.27h.29c1.67-6.67,4.02-13.93,6.97-22.27l11.77-31.99h10.89l4.12,66.13h-8.34l-1.67-29.04Z"/>
    <path d="M572.78,733.17h-25.71v23.84h28.65v7.16h-37.18v-66.13h35.71v7.16h-27.18v20.9h25.71v7.06Z"/>
    <path d="M586.81,764.18v-66.13h9.32l21.19,33.46c4.91,7.75,8.73,14.72,11.87,21.49l.2-.1c-.79-8.83-.98-16.88-.98-27.18v-27.67h8.05v66.13h-8.63l-21-33.55c-4.61-7.36-9.03-14.91-12.36-22.08l-.29,.1c.49,8.34,.69,16.29,.69,27.28v28.26h-8.04Z"/>
    <path d="M663.93,705.31h-20.11v-7.26h48.96v7.26h-20.21v58.87h-8.63v-58.87Z"/>
    <path d="M698.36,753.78c3.83,2.36,9.42,4.32,15.31,4.32,8.73,0,13.83-4.61,13.83-11.28,0-6.18-3.53-9.71-12.46-13.15-10.79-3.83-17.46-9.42-17.46-18.74,0-10.3,8.54-17.96,21.39-17.96,6.77,0,11.68,1.57,14.62,3.24l-2.35,6.97c-2.16-1.18-6.57-3.14-12.56-3.14-9.03,0-12.46,5.4-12.46,9.91,0,6.18,4.02,9.22,13.15,12.75,11.19,4.32,16.88,9.71,16.88,19.43,0,10.2-7.55,19.03-23.16,19.03-6.38,0-13.34-1.86-16.88-4.22l2.16-7.16Z"/>
  </g>
  <rect class="cls-3" x="817.4" y="261.1" width="35.46" height="35.46"/>
  <line class="cls-2" x1="719.7" y1="912.37" x2="867.05" y2="704.63"/>
</svg>